Coordinates
version=1
nRows=19
nColumns=24
inDegrees=yes

Units are S.I. units (second, meters, Newtons, ...)
Angles are in degrees.

endheader
time	pelvis_tilt	pelvis_list	pelvis_rotation	pelvis_tx	pelvis_ty	pelvis_tz	hip_flexion_r	hip_adduction_r	hip_rotation_r	knee_angle_r	ankle_angle_r	subtalar_angle_r	mtp_angle_r	hip_flexion_l	hip_adduction_l	hip_rotation_l	knee_angle_l	ankle_angle_l	subtalar_angle_l	mtp_angle_l	lumbar_extension	lumbar_bending	lumbar_rotation
      1.89000000	     -5.45499919	     -0.31904854	     12.82178059	      0.48447160	      1.03985183	      1.46203211	      5.35678070	      1.47044368	    -14.46234498	    -10.17695397	     10.86322581	     11.81427581	    -39.82100354	     15.54830676	     -0.80779639	     14.68807174	    -44.18542168	     -2.45597396	     12.55076804	    -26.79133011	     -5.77660916	      1.55355870	     -9.02819167
      1.90000000	     -5.33689683	     -0.06728753	     12.47521582	      0.48373324	      1.03998991	      1.46230726	      4.14688988	      1.46475343	    -14.24671253	     -9.61155442	     10.98149721	     12.06213445	    -39.83732506	     16.56819122	     -0.48699325	     14.13863576	    -43.37056614	     -1.21874138	     12.30546678	    -26.71114087	     -5.92184913	      1.34724050	     -8.63053825
      1.91000000	     -5.19899686	      0.15764051	     12.11709784	      0.48290201	      1.03997377	      1.46256449	      2.98385681	      1.46245637	    -14.03028650	     -9.15023250	     11.12258904	     12.31250229	    -39.84199577	     17.51388925	     -0.23391393	     13.57606633	    -42.33340759	     -0.17079169	     12.04935927	    -26.68157360	     -6.09528267	      1.17077640	     -8.25187949
      1.92000000	     -5.03958564	      0.36029273	     11.74547375	      0.48199233	      1.03982834	      1.46281153	      1.85596595	      1.46274007	    -13.79996516	     -8.77703206	     11.28084752	     12.54657624	    -39.83380841	     18.37133312	     -0.04080186	     13.01286998	    -41.06979981	      0.68680633	     11.77029275	    -26.72902764	     -6.29963763	      1.01672605	     -7.88759627
      1.93000000	     -4.90480708	      0.51637329	     11.34345655	      0.48099189	      1.03950160	      1.46306494	      0.83673987	      1.47533797	    -13.56498182	     -8.53041374	     11.46598696	     12.78633063	    -39.81926017	     19.20086447	      0.06701936	     12.41426174	    -39.60741439	      1.37505037	     11.48747462	    -26.78855404	     -6.48083081	      0.90173838	     -7.50784394
      1.94000000	     -4.79310480	      0.66242238	     10.94814198	      0.47992342	      1.03902227	      1.46328892	     -0.12369272	      1.47147093	    -13.29310201	     -8.33932179	     11.63949758	     13.04404321	    -39.80884908	     19.98550193	      0.13550377	     11.79714511	    -37.93926657	      1.89155654	     11.23268418	    -26.84190334	     -6.64702911	      0.78313317	     -7.20598658
      1.95000000	     -4.52779422	      0.79993929	     10.57500011	      0.47891691	      1.03859815	      1.46342287	     -1.27767359	      1.50199485	    -13.04000233	     -8.09815499	     11.85273182	     13.15248123	    -39.76582952	     20.49859033	      0.16419304	     11.26201147	    -36.03071965	      2.21190708	     10.84443151	    -27.16081223	     -6.98436866	      0.70788446	     -6.91647686
      1.96000000	     -4.42624254	      0.88451134	     10.15035397	      0.47779325	      1.03786136	      1.46358014	     -2.16665855	      1.51698985	    -12.74656044	     -7.99647353	     12.05170809	     13.39307490	    -39.75063071	     21.15189721	      0.10599453	     10.58068877	    -33.99212164	      2.43016051	     10.62138886	    -27.29396728	     -7.14549625	      0.64592500	     -6.59870047
      1.97000000	     -4.24061894	      0.95770994	      9.78423770	      0.47669997	      1.03713346	      1.46364024	     -3.25699996	      1.61074727	    -12.08415159	     -7.68847593	     12.24087910	     12.91645145	    -39.56739390	     21.62782788	      0.05267223	     10.04589996	    -31.77286158	      2.77284615	     10.07444209	    -31.92897724	     -7.40193958	      0.61317266	     -6.34403686
      1.98000000	     -3.98121517	      1.01755133	      9.42779276	      0.47569444	      1.03635021	      1.46360793	     -4.33447963	      1.63584096	    -12.10504480	     -7.56086752	     12.39455993	     13.40668651	    -39.59449327	     21.95271086	     -0.07384505	      9.39076943	    -29.40353486	      2.80089160	      9.99046608	    -32.15780046	     -7.73674413	      0.60587856	     -6.10217231
      1.99000000	     -3.84838855	      1.03928531	      9.06368705	      0.47464735	      1.03532070	      1.46353913	     -5.26847851	      1.67418725	    -11.95554976	     -7.43826257	     12.59375762	     13.70031190	    -39.59786735	     22.37834074	     -0.23214089	      8.65144013	    -26.94800597	      2.62904965	      9.84338668	    -32.34385093	     -7.93065852	      0.61172753	     -5.84390254
      2.00000000	     -3.65322306	      1.06884408	      8.76371812	      0.47365625	      1.03429004	      1.46331288	     -6.23065207	      1.66991003	    -12.15861500	     -7.41006512	     12.81241422	     14.36240412	    -39.86151055	     22.65639784	     -0.34706466	      8.04587471	    -24.37881726	      2.74676241	      9.58375532	    -36.56597407	     -8.19689291	      0.62263212	     -5.66580068
      2.01000000	     -3.51576349	      1.00857667	      8.43284088	      0.47269170	      1.03307427	      1.46315142	     -7.17447806	      1.78203265	    -11.94119494	     -7.26141412	     12.93014795	     14.54412467	    -39.85543701	     23.01329162	     -0.59912952	      7.17062131	    -21.84123771	      2.49713431	      9.70954018	    -36.67996298	     -8.38870475	      0.70675530	     -5.42942852
      2.02000000	     -3.29259945	      0.93500774	      8.14185687	      0.47182998	      1.03187757	      1.46292838	     -8.20373842	      1.91043411	    -11.82400261	     -7.13373182	     12.98441157	     14.73172501	    -39.87271208	     23.25429593	     -0.87224049	      6.17811644	    -19.33530412	      2.40072932	     10.20593515	    -36.97039820	     -8.67320320	      0.81178054	     -5.24092634
      2.03000000	     -3.21367679	      0.80216328	      7.81874860	      0.47097918	      1.03045621	      1.46271614	     -9.00659966	      2.04126550	    -11.75479345	     -7.12250265	     13.04221859	     15.07307165	    -39.97640643	     23.71482676	     -1.21723721	      4.77092214	    -17.03884058	      2.36131322	     11.14482587	    -37.84440921	     -8.79092838	      0.94703274	     -5.00081376
      2.04000000	     -3.07782556	      0.67750575	      7.51011174	      0.47023654	      1.02907059	      1.46244048	     -9.85814141	      2.15203714	    -11.73135612	     -7.15415805	     13.13505619	     15.45724442	    -40.12695915	     24.10153008	     -1.53078661	      3.22151852	    -14.88780854	      2.45871124	     12.28358413	    -38.75176722	     -8.97298244	      1.07354607	     -4.78162992
      2.05000000	     -2.91240850	      0.53541305	      7.20875575	      0.46959337	      1.02771816	      1.46212500	    -10.72247874	      2.26814023	    -11.71157031	     -7.22311337	     13.28928723	     15.79661756	    -40.99667558	     24.46828622	     -1.83678739	      1.51455858	    -12.96527049	      2.94471345	     13.59250545	    -42.74026737	     -9.18551830	      1.21379924	     -4.56782983
      2.06000000	     -2.72813466	      0.41578180	      6.89844305	      0.46907819	      1.02638721	      1.46176945	    -11.56514444	      2.33110740	    -11.75027097	     -7.39149886	     13.32727268	     16.23505126	    -41.05799542	     24.81630747	     -2.10885307	     -0.48686403	    -11.29874402	      3.27218502	     15.41454403	    -42.88652717	     -9.41767209	      1.31796103	     -4.34827584
      2.07000000	     -2.59786654	      0.29143161	      6.54311785	      0.46865805	      1.02502832	      1.46139327	    -12.29050001	      2.34811392	    -11.74730057	     -7.67524580	     13.38688848	     16.73608788	    -41.22228095	     25.23612325	     -2.37070020	     -2.68398801	     -9.96228328	      3.77796712	     17.47687625	    -43.08849688	     -9.58658339	      1.40864341	     -4.07618809
